<svg width="26" height="26" viewBox="0 0 26 26" fill="none" xmlns="http://www.w3.org/2000/svg">
<path d="M8.89989 22.2618C9.75198 22.2618 10.4427 21.5711 10.4427 20.719C10.4427 19.8669 9.75198 19.1761 8.89989 19.1761C8.04779 19.1761 7.35703 19.8669 7.35703 20.719C7.35703 21.5711 8.04779 22.2618 8.89989 22.2618Z" fill="#333333"/>
<path d="M19.6999 22.2618C20.552 22.2618 21.2427 21.5711 21.2427 20.719C21.2427 19.8669 20.552 19.1761 19.6999 19.1761C18.8478 19.1761 18.157 19.8669 18.157 20.719C18.157 21.5711 18.8478 22.2618 19.6999 22.2618Z" fill="#333333"/>
<path d="M22.506 6.57774C22.3324 6.3222 22.072 6.14381 21.7683 6.08595C21.696 6.07149 21.6188 6.06184 21.5417 6.06184H6.87007L6.57596 4.38399C6.51328 4.01756 6.19025 3.74756 5.81417 3.74756H2.72846C2.30417 3.74756 1.95703 4.0947 1.95703 4.51899C1.95703 4.94327 2.30417 5.29042 2.72846 5.29042H5.1681L7.3715 17.7683C7.43417 18.1347 7.75721 18.4047 8.13328 18.4047H20.4761C20.9004 18.4047 21.2476 18.0576 21.2476 17.6333C21.2476 17.209 20.9004 16.8618 20.4761 16.8618H8.77453L8.50453 15.319H20.1579C20.7076 15.319 21.1849 14.9285 21.291 14.3885L22.6795 7.44559C22.7374 7.14184 22.6795 6.83327 22.506 6.57774ZM19.8397 13.7761H8.22971L7.14007 7.6047H21.0692L19.8397 13.7761Z" fill="#333333"/>
</svg>
