<svg width="14" height="14" viewBox="0 0 14 14" fill="none" xmlns="http://www.w3.org/2000/svg">
<path d="M10.5258 10.5875C10.7427 10.3706 10.7427 10.0188 10.5258 9.80187L7.7763 7.05239L10.5265 4.30215C10.7435 4.0852 10.7435 3.73344 10.5265 3.51648C10.3096 3.29952 9.95782 3.29952 9.74086 3.51648L6.99062 6.26672L4.24038 3.51648C4.02343 3.29952 3.67167 3.29952 3.45471 3.51648C3.23775 3.73344 3.23775 4.08519 3.45471 4.30215L6.20495 7.05239L3.45547 9.80187C3.23851 10.0188 3.23851 10.3706 3.45547 10.5875C3.67242 10.8045 4.02418 10.8045 4.24114 10.5875L6.99062 7.83806L9.7401 10.5875C9.95706 10.8045 10.3088 10.8045 10.5258 10.5875Z" fill="#191D23"/>
</svg>
