<svg width="25" height="25" viewBox="0 0 25 25" fill="none" xmlns="http://www.w3.org/2000/svg">
<path fill-rule="evenodd" clip-rule="evenodd" d="M7.24053 6.71254C8.59279 5.36028 10.4269 4.60059 12.3392 4.60059C14.2516 4.60059 16.0857 5.36028 17.438 6.71254C18.7902 8.0648 19.5499 9.89887 19.5499 11.8113C19.5499 13.7236 18.7902 15.5577 17.438 16.91L12.3392 22.0087L7.24053 16.91C6.57091 16.2404 6.03974 15.4455 5.67734 14.5707C5.31494 13.6958 5.12842 12.7582 5.12842 11.8113C5.12842 10.8643 5.31494 9.92666 5.67734 9.05182C6.03974 8.17698 6.57091 7.38209 7.24053 6.71254ZM12.3392 13.8713C12.8856 13.8713 13.4096 13.6543 13.7959 13.268C14.1823 12.8816 14.3993 12.3576 14.3993 11.8113C14.3993 11.2649 14.1823 10.7409 13.7959 10.3546C13.4096 9.96821 12.8856 9.75117 12.3392 9.75117C11.7929 9.75117 11.2689 9.96821 10.8825 10.3546C10.4962 10.7409 10.2792 11.2649 10.2792 11.8113C10.2792 12.3576 10.4962 12.8816 10.8825 13.268C11.2689 13.6543 11.7929 13.8713 12.3392 13.8713Z" fill="#B0BABF"/>
</svg>
