<svg width="25" height="25" viewBox="0 0 25 25" fill="none" xmlns="http://www.w3.org/2000/svg">
<path d="M22.2477 20.5455L17.7112 16.009C18.8034 14.555 19.393 12.7852 19.391 10.9667C19.391 6.32176 15.6119 2.54272 10.967 2.54272C6.322 2.54272 2.54297 6.32176 2.54297 10.9667C2.54297 15.6117 6.322 19.3907 10.967 19.3907C12.7855 19.3927 14.5552 18.8031 16.0092 17.7109L20.5457 22.2474C20.7753 22.4527 21.0748 22.5623 21.3827 22.5537C21.6906 22.545 21.9835 22.4189 22.2013 22.2011C22.4191 21.9833 22.5453 21.6904 22.5539 21.3825C22.5625 21.0746 22.4529 20.7751 22.2477 20.5455ZM4.94983 10.9667C4.94983 9.77665 5.30273 8.61329 5.9639 7.62378C6.62507 6.63427 7.56482 5.86303 8.66431 5.40761C9.7638 4.95219 10.9736 4.83303 12.1409 5.0652C13.3081 5.29737 14.3802 5.87045 15.2217 6.71196C16.0632 7.55347 16.6363 8.62563 16.8685 9.79284C17.1007 10.96 16.9815 12.1699 16.5261 13.2694C16.0707 14.3689 15.2994 15.3086 14.3099 15.9698C13.3204 16.631 12.157 16.9839 10.967 16.9839C9.37171 16.982 7.84234 16.3474 6.71432 15.2194C5.5863 14.0914 4.95174 12.562 4.94983 10.9667Z" fill="#333333"/>
</svg>
