<svg width="83" height="17" viewBox="0 0 83 17" fill="none" xmlns="http://www.w3.org/2000/svg">
<path d="M7.69136 3.33795C7.94581 2.55483 9.0537 2.55483 9.30815 3.33795L10.2173 6.13597C10.3311 6.48619 10.6574 6.72331 11.0257 6.72331H13.9677C14.7911 6.72331 15.1335 7.77698 14.4673 8.26097L12.0872 9.99025C11.7893 10.2067 11.6646 10.5904 11.7784 10.9406L12.6875 13.7386C12.942 14.5217 12.0457 15.1729 11.3795 14.6889L8.99937 12.9597C8.70146 12.7432 8.29805 12.7432 8.00014 12.9597L5.61999 14.6889C4.95384 15.1729 4.05753 14.5217 4.31198 13.7386L5.22111 10.9406C5.33491 10.5904 5.21025 10.2067 4.91233 9.99025L2.53219 8.26097C1.86603 7.77698 2.20839 6.72331 3.03181 6.72331H5.97382C6.34207 6.72331 6.66843 6.48619 6.78222 6.13597L7.69136 3.33795Z" fill="#AA4A44"/>
<path d="M24.6914 3.33795C24.9458 2.55483 26.0537 2.55483 26.3082 3.33795L27.2173 6.13597C27.3311 6.48619 27.6574 6.72331 28.0257 6.72331H30.9677C31.7911 6.72331 32.1335 7.77698 31.4673 8.26097L29.0872 9.99025C28.7893 10.2067 28.6646 10.5904 28.7784 10.9406L29.6875 13.7386C29.942 14.5217 29.0457 15.1729 28.3795 14.6889L25.9994 12.9597C25.7015 12.7432 25.2981 12.7432 25.0001 12.9597L22.62 14.6889C21.9538 15.1729 21.0575 14.5217 21.312 13.7386L22.2211 10.9406C22.3349 10.5904 22.2102 10.2067 21.9123 9.99025L19.5322 8.26097C18.866 7.77698 19.2084 6.72331 20.0318 6.72331H22.9738C23.3421 6.72331 23.6684 6.48619 23.7822 6.13597L24.6914 3.33795Z" fill="#AA4A44"/>
<path d="M41.6914 3.33795C41.9458 2.55483 43.0537 2.55483 43.3082 3.33795L44.2173 6.13597C44.3311 6.48619 44.6574 6.72331 45.0257 6.72331H47.9677C48.7911 6.72331 49.1335 7.77698 48.4673 8.26097L46.0872 9.99025C45.7893 10.2067 45.6646 10.5904 45.7784 10.9406L46.6875 13.7386C46.942 14.5217 46.0457 15.1729 45.3795 14.6889L42.9994 12.9597C42.7015 12.7432 42.2981 12.7432 42.0001 12.9597L39.62 14.6889C38.9538 15.1729 38.0575 14.5217 38.312 13.7386L39.2211 10.9406C39.3349 10.5904 39.2102 10.2067 38.9123 9.99025L36.5322 8.26097C35.866 7.77698 36.2084 6.72331 37.0318 6.72331H39.9738C40.3421 6.72331 40.6684 6.48619 40.7822 6.13597L41.6914 3.33795Z" fill="#AA4A44"/>
<path d="M58.6914 3.33795C58.9458 2.55483 60.0537 2.55483 60.3082 3.33795L61.2173 6.13597C61.3311 6.48619 61.6574 6.72331 62.0257 6.72331H64.9677C65.7911 6.72331 66.1335 7.77698 65.4673 8.26097L63.0872 9.99025C62.7893 10.2067 62.6646 10.5904 62.7784 10.9406L63.6875 13.7386C63.942 14.5217 63.0457 15.1729 62.3795 14.6889L59.9994 12.9597C59.7015 12.7432 59.2981 12.7432 59.0001 12.9597L56.62 14.6889C55.9538 15.1729 55.0575 14.5217 55.312 13.7386L56.2211 10.9406C56.3349 10.5904 56.2102 10.2067 55.9123 9.99025L53.5322 8.26097C52.866 7.77698 53.2084 6.72331 54.0318 6.72331H56.9738C57.3421 6.72331 57.6684 6.48619 57.7822 6.13597L58.6914 3.33795Z" fill="#AA4A44"/>
<path fill-rule="evenodd" clip-rule="evenodd" d="M74.3113 2.74511C74.6855 1.51676 76.3147 1.51677 76.6889 2.74512L77.6382 5.86105L80.7097 5.86118C81.9206 5.86123 82.424 7.51396 81.4444 8.27317L78.9596 10.1991L79.9086 13.3151C80.2828 14.5434 78.9647 15.5649 77.9851 14.8058L75.5001 12.8801L73.0151 14.8058C72.0354 15.5649 70.7174 14.5434 71.0915 13.3151L72.0406 10.1991L69.5557 8.27317C68.5761 7.51396 69.0796 5.86123 70.2904 5.86118L73.362 5.86105L74.3113 2.74511ZM75.5001 3.15719L74.5508 6.27313C74.3835 6.82245 73.9035 7.19437 73.362 7.19439L70.2905 7.19451L72.7754 9.12039C73.2134 9.45991 73.3967 10.0617 73.2294 10.611L72.2804 13.727L74.7654 11.8014C75.2035 11.4619 75.7967 11.4619 76.2348 11.8014L78.7198 13.727L77.7707 10.611C77.6034 10.0617 77.7867 9.45991 78.2248 9.12039L80.7097 7.19451L77.6381 7.19439C77.0966 7.19437 76.6167 6.82245 76.4494 6.27312L75.5001 3.15719Z" fill="#AA4A44"/>
</svg>
